<svg width="620" height="529" viewBox="0 0 620 529" fill="none" xmlns="http://www.w3.org/2000/svg">
<path d="M40.0662 338.013L0 407.243L40.0662 476.361H119.989L160.063 407.243L119.989 338.013H40.0662V338.013ZM115.669 468.883H44.3857L8.64656 407.236L44.3857 345.476H115.669L151.408 407.236L115.669 468.883ZM581.551 329.931H504.87L467.506 394.388H394.201L357.481 330.865L395.279 265.378L357.481 199.988L395.279 134.605L355.325 65.4873H278.681L240.779 0H160.744L120.678 69.2221L158.58 134.612L122.841 196.26H46.6091L6.53546 265.378L46.6091 334.6H122.841L160.744 399.99H237.388L275.29 465.373H354.509L391.334 529H469.205L507.542 462.572H581.551L620 396.255L581.551 329.931ZM386.64 265.378L350.991 327.13H279.61L243.871 265.378L279.61 203.73H350.998L386.64 265.378ZM279.61 72.9495H350.998L386.64 134.597L350.998 196.245H279.61L243.871 134.597L279.61 72.9495ZM129.324 69.2147L165.063 7.46227H236.452L272.191 69.2147L236.452 130.862H165.063L129.324 69.2147ZM165.063 138.34H236.452L272.191 199.988L236.452 261.635H165.063L129.324 199.988L165.063 138.34ZM122.317 327.13H50.9287L15.1895 265.378L50.9287 203.73H122.317L157.959 265.378L122.317 327.13ZM236.452 392.52H165.063L129.324 330.865L165.063 269.113H236.452L272.191 330.865L236.452 392.52ZM350.998 457.903H279.61L243.871 396.255L279.61 334.6H350.998L386.64 396.255L350.998 457.903ZM467.042 525.258H393.497L357.084 462.333L394.201 398.115H467.042L503.769 461.63L467.042 525.258ZM580.465 460.704H507.542L469.744 395.321L469.318 394.978L505.948 331.799H580.465L617.829 396.255L580.465 460.704ZM232.941 124.864L265.176 69.2147L232.941 13.4679H168.567L136.331 69.2147L168.567 124.864H232.941ZM170.738 17.2028H230.785L260.864 69.2147L230.792 121.129H170.745L140.673 69.2147L170.738 17.2028Z" fill="#4A7799"/>
</svg>
