<svg width="15" height="15" viewBox="0 0 87 90" fill="none" xmlns="http://www.w3.org/2000/svg">
<path d="M84.9923 69.3113C83.1496 63.8639 80.2719 59.3795 75.3709 54.3169C72.375 51.2224 69.358 48.2353 66.8016 45.7221C65.2721 44.2183 63.7731 42.7558 62.2836 41.3093L71.5035 40.1812L78.0819 44.0422C78.2893 44.1637 78.5164 44.2216 78.7403 44.2216C79.1874 44.2216 79.6225 43.9913 79.8649 43.5785C80.2293 42.9577 80.0213 42.1594 79.4011 41.7956L72.4424 37.7113C72.1956 37.5669 71.9081 37.5052 71.6244 37.5415L59.8754 38.9788C58.6271 37.775 57.3808 36.5784 56.1329 35.3879C56.1337 35.326 56.1421 35.2659 56.1421 35.2038C56.1421 33.1708 55.6844 31.2496 54.8894 29.5215C55.0466 29.497 55.2026 29.4537 55.3482 29.3684L62.307 25.2841C62.4851 25.1798 62.6359 25.0341 62.7465 24.8605L66.689 18.6644L70.3916 17.8711C71.0952 17.7204 71.5436 17.0277 71.3928 16.3242C71.2421 15.6207 70.55 15.171 69.8459 15.323L65.6102 16.2307C65.2693 16.3038 64.9716 16.5112 64.7839 16.8051L60.7168 23.1965L54.029 27.1217C53.8925 27.2018 53.7848 27.3095 53.69 27.4251C53.3328 26.9148 52.9426 26.4314 52.5207 25.9777C54.0079 25.0718 56.4787 23.1256 56.4455 20.1821C56.4868 19.3981 56.4821 14.1521 49.4458 10.7025C50.0512 10.221 50.8402 9.62528 51.7937 8.96566C55.1926 6.61429 60.588 3.57929 66.5469 2.80852C67.7055 2.65864 68.8801 2.57436 70.0698 2.61976C70.7867 2.65156 71.3935 2.08544 71.4208 1.36667C71.4476 0.647257 70.8865 0.0429844 70.1677 0.0156277C58.7632 -0.405458 48.7331 7.80775 46.7023 9.58425C45.6818 9.24084 44.5559 8.93146 43.3116 8.66638C43.1322 8.62821 42.9478 8.62821 42.7684 8.66638C41.524 8.93146 40.3978 9.241 39.3773 9.5844C37.3443 7.80892 27.3057 -0.399113 15.9123 0.0156153C15.1935 0.042972 14.6325 0.647242 14.6592 1.36666C14.6865 2.08544 15.2902 2.65727 16.0102 2.61974C17.2028 2.57537 18.3801 2.66069 19.5412 2.81184C25.4957 3.58699 30.8843 6.61547 34.2811 8.96342C35.2368 9.62407 36.0274 10.2206 36.6338 10.7027C29.598 14.1523 29.5933 19.3981 29.6345 20.182C29.6013 23.1256 32.0721 25.0718 33.5593 25.9777C33.1374 26.4314 32.7473 26.9147 32.3901 27.425C32.2954 27.3095 32.1875 27.2018 32.051 27.1217L25.3632 23.1964L21.2961 16.8051C21.1085 16.5112 20.8108 16.3038 20.4698 16.2307L16.2341 15.323C15.5281 15.1709 14.8386 15.6213 14.6872 16.3242C14.5364 17.0277 14.9849 17.7204 15.6884 17.8711L19.391 18.6643L23.3335 24.8604C23.4442 25.0341 23.5949 25.1797 23.773 25.2841L30.7318 29.3684C30.8775 29.4537 31.0334 29.497 31.1906 29.5215C30.3956 31.2496 29.938 33.1708 29.938 35.2038C29.938 35.2658 29.9462 35.3257 29.947 35.3875C28.7005 36.5766 27.454 37.7735 26.2044 38.9788L14.4556 37.5414C14.1713 37.5052 13.8844 37.5669 13.6376 37.7113L6.67886 41.7955C6.05869 42.1594 5.85069 42.9577 6.21516 43.5785C6.45751 43.9913 6.89259 44.2216 7.33975 44.2216C7.56366 44.2216 7.79074 44.1637 7.9981 44.0422L14.5765 40.1812L23.7965 41.3093C22.3088 42.7541 20.8103 44.2162 19.2784 45.7221C16.722 48.2353 13.7051 51.2223 10.7097 54.3162C5.80805 59.3795 2.9304 63.8639 1.08767 69.3113C0.23746 71.8252 -0.108563 73.9645 0.0294587 75.7257C-0.00353877 75.9705 0.0176156 76.2167 0.123512 76.4443C0.269102 77.3101 0.534346 78.0816 0.951536 78.7311C1.84269 80.1184 3.2847 80.9249 5.23748 81.1266C5.66684 81.1711 6.09238 81.1921 6.51538 81.1921C12.8773 81.1916 18.4845 76.4076 21.25 73.5764C21.4821 74.2099 21.7966 74.7442 22.2381 75.1442C22.642 75.5106 23.2883 75.8948 24.2221 75.8948C24.4619 75.8948 24.7208 75.8693 24.9994 75.8121C26.8625 75.4264 28.9964 74.3983 30.8655 72.8176C30.9637 73.188 31.0698 73.5548 31.1765 73.9215C31.1794 73.9376 31.186 73.9517 31.1895 73.9677C32.3105 77.8083 33.8568 81.4449 35.2874 84.7815C37.0214 88.8276 40.3417 89.8524 42.4135 89.8524C42.6455 89.8524 42.8433 89.8291 43.04 89.8063C43.2367 89.8291 43.4345 89.8524 43.6665 89.8524C45.7383 89.8524 49.0586 88.827 50.7926 84.7815C52.3653 81.1131 54.0834 77.0846 55.2145 72.8176C57.0835 74.3983 59.2176 75.4264 61.0806 75.8121C61.3592 75.8693 61.6181 75.8948 61.8579 75.8948C62.7917 75.8948 63.438 75.5106 63.8419 75.1442C64.2833 74.7442 64.5979 74.2099 64.83 73.5765C67.5953 76.4079 73.2023 81.1921 79.5646 81.1921C79.987 81.1921 80.4138 81.1711 80.8425 81.1266C82.7953 80.9249 84.2373 80.1184 85.1285 78.7311C85.5456 78.0816 85.8109 77.3101 85.9565 76.4443C86.0624 76.2167 86.0835 75.9705 86.0505 75.7257C86.1886 73.9645 85.8425 71.8252 84.9923 69.3113ZM64.9747 47.5795C67.5197 50.0819 70.5227 53.0543 73.4989 56.1291C78.176 60.9602 80.791 65.0209 82.5243 70.1459C82.7718 70.8776 82.9635 71.5654 83.1154 72.2179C79.9566 68.7838 76.9098 65.1812 74.0364 61.4582C72.8438 59.9126 71.6943 58.2403 70.5831 56.6227C68.3988 53.4461 66.1407 50.1607 63.3082 47.4275C62.7917 46.9294 61.9667 46.9422 61.4661 47.4606C60.9668 47.9783 60.9814 48.8033 61.4992 49.3027C64.1382 51.8484 66.3176 55.0172 68.4246 58.0825C67.4954 58.9335 66.0527 60.0376 64.6113 60.5465C64.4266 55.961 56.718 41.3842 55.838 39.734C55.7517 39.5722 55.6351 39.4377 55.5002 39.3303C55.5779 39.0854 55.6397 38.8342 55.7037 38.5834C58.7592 41.5097 61.8096 44.4681 64.9747 47.5795ZM32.5433 35.2038C32.5433 29.2488 37.2523 24.4044 43.04 24.4044C48.8277 24.4044 53.5367 29.2488 53.5367 35.2038C53.5367 41.1589 48.8277 46.0033 43.04 46.0033C37.2523 46.0033 32.5433 41.1589 32.5433 35.2038ZM38.4627 18.3412C38.2382 18.1148 38.0143 17.9074 37.7955 17.7051C37.2777 17.2281 36.8687 16.8515 36.5697 16.2975C36.2107 15.6328 35.979 14.8928 35.8119 14.2158C37.1867 13.2384 39.104 12.3196 41.7373 11.6086V14.7454C41.7373 15.4649 42.3206 16.0481 43.04 16.0481C43.7594 16.0481 44.3427 15.4649 44.3427 14.7454V11.6086C46.9761 12.3197 48.8933 13.2383 50.2682 14.2154C50.1012 14.8925 49.8694 15.6326 49.5102 16.2975C49.2113 16.8515 48.8023 17.2281 48.2845 17.7052C48.0657 17.9074 47.8418 18.1148 47.6179 18.3406C46.6641 19.3025 46.1922 20.7796 46.2144 22.2134C45.1958 21.9526 44.1364 21.799 43.04 21.799C41.9436 21.799 40.8841 21.9526 39.8657 22.2134C39.8879 20.7797 39.4161 19.3027 38.4627 18.3412ZM53.8445 20.0345C53.8401 20.0835 53.8388 20.1324 53.8401 20.182C53.8898 22.3844 50.8869 23.9334 50.4391 24.1517C49.9996 23.8428 49.5388 23.5654 49.0631 23.3121C48.6076 22.4358 48.7837 20.865 49.4683 20.1744C49.6642 19.9772 49.8595 19.7972 50.0509 19.621C50.6635 19.0562 51.2964 18.4723 51.8027 17.5353C52.0404 17.0953 52.2223 16.6459 52.3828 16.2004C53.9168 18.1723 53.8532 19.9061 53.8445 20.0345ZM32.2399 20.182C32.2412 20.1426 32.2393 20.0879 32.2367 20.0491C32.2273 19.9131 32.1634 18.1754 33.6976 16.2017C33.858 16.6469 34.0399 17.096 34.2773 17.5359C34.7836 18.4723 35.4165 19.0562 36.0291 19.621C36.2205 19.7972 36.4158 19.9772 36.6124 20.1751C37.2964 20.865 37.4724 22.4358 37.0169 23.3121C36.5412 23.5654 36.0804 23.8428 35.6409 24.1517C35.1931 23.9334 32.1902 22.3844 32.2399 20.182ZM12.5817 56.1285C15.5573 53.0543 18.5603 50.0819 21.1052 47.5795C24.2792 44.4594 27.3289 41.5013 30.3762 38.583C30.4402 38.8337 30.5019 39.0848 30.5796 39.3296C30.4446 39.4373 30.3281 39.5719 30.242 39.734C29.3619 41.3842 21.6534 55.9609 21.4687 60.5465C20.0273 60.0376 18.5846 58.9334 17.6553 58.0825C19.7624 55.0171 21.9418 51.8483 24.5808 49.3026C25.0986 48.8033 25.1132 47.9783 24.6139 47.4605C24.1139 46.9421 23.2895 46.9294 22.7718 47.4275C19.9393 50.1607 17.6812 53.4461 15.4969 56.6227C14.3856 58.2403 13.2362 59.9125 12.0436 61.4582C9.17021 65.1812 6.12335 68.7838 2.96456 72.2179C3.11643 71.5653 3.3082 70.8776 3.55565 70.1458C5.28899 65.0209 7.90393 60.9602 12.5817 56.1285ZM5.50589 78.5352C4.36412 78.4169 3.5919 78.0206 3.14346 77.3228C2.95677 77.0321 2.82661 76.6727 2.73565 76.2691C5.10118 73.796 7.4042 71.2189 9.63694 68.5677C10.5693 71.0624 11.6579 74.83 11.3146 77.5381C9.48253 78.3068 7.51003 78.7429 5.50589 78.5352ZM13.9729 76.1537C13.8913 72.3051 12.2516 67.995 11.5334 66.2903C12.4029 65.2196 13.2637 64.1412 14.1058 63.0497C14.8095 62.1378 15.4875 61.1942 16.1535 60.2462C17.3084 61.2719 19.1854 62.6847 21.2488 63.2204C21.2241 63.4576 21.1991 63.6955 21.1733 63.9396C20.9162 66.3615 20.7344 68.4751 20.7627 70.2523C19.9781 71.1736 17.403 74.0316 13.9729 76.1537ZM27.1565 72.2401C27.232 68.0396 28.3158 64.8621 29.2749 62.859C29.4569 64.5416 29.6533 66.2382 29.8807 67.9609C29.9663 68.6089 30.0794 69.2504 30.2 69.8896C29.2811 70.8716 28.2276 71.6607 27.1565 72.2401ZM50.521 61.2165C50.395 62.2452 50.3896 63.2281 50.4849 64.1633C43.9809 65.0659 38.0835 64.5254 35.5896 64.2045C35.6894 63.2568 35.6868 62.2604 35.559 61.2165C35.2538 58.7239 34.9499 56.2898 34.6798 54.1468C37.1968 53.982 43.3281 53.704 51.3447 54.1631C51.101 56.3394 50.8197 58.7767 50.521 61.2165ZM35.0388 66.765C36.5561 66.9717 39.4136 67.279 42.9802 67.279C45.3998 67.279 48.1529 67.123 51.0267 66.7125C51.4938 68.1536 52.2094 69.44 53.0748 70.5694C52.9295 71.2209 52.7708 71.8686 52.5941 72.5122C43.7129 74.024 35.8928 72.9616 33.4982 72.5556C33.3169 71.8977 33.1537 71.2356 33.0052 70.5694C33.8603 69.4533 34.5715 68.1856 35.0388 66.765ZM49.9719 80.0232C44.5554 80.861 38.1991 80.2472 36.098 79.9988C35.4803 78.4861 34.8869 76.9234 34.3492 75.3302C36.2461 75.6009 39.2628 75.9209 42.9579 75.9209C45.5985 75.9209 48.5919 75.7391 51.7486 75.2763C51.2034 76.8969 50.6001 78.4857 49.9719 80.0232ZM43.2359 87.2165C43.165 87.2058 43.0998 87.2255 43.0305 87.2261C42.9645 87.2263 42.9024 87.2073 42.8352 87.2178C42.8034 87.2267 39.3812 87.7196 37.6816 83.7549C37.5398 83.4239 37.3948 83.0827 37.2509 82.7458C38.8509 82.8999 41.154 83.0648 43.6983 83.0648C45.3445 83.0648 47.0882 82.9872 48.8053 82.8015C48.6694 83.1195 48.5324 83.4422 48.3984 83.7549C46.756 87.5867 43.5997 87.2686 43.2359 87.2165ZM55.8801 69.8897C56.0007 69.2505 56.1137 68.609 56.1993 67.9609C56.4276 66.2314 56.6246 64.5283 56.8071 62.8393C57.7672 64.8326 58.8527 68.0077 58.9247 72.2407C57.8532 71.6613 56.7993 70.872 55.8801 69.8897ZM62.0926 73.2137C62.0519 73.2493 61.9591 73.3327 61.6086 73.2601C61.5804 73.2543 61.5507 73.2442 61.5224 73.238C61.698 64.0992 57.5396 58.9493 57.3551 58.7275C57.3161 58.6804 57.262 58.6571 57.2181 58.6169C57.3968 56.5601 57.5489 54.5335 57.6534 52.5696C57.6916 51.8508 57.1401 51.2376 56.422 51.1995C55.7153 51.1657 55.0906 51.7128 55.0518 52.4309C54.8139 56.9053 54.37 61.6587 53.7468 66.5625C53.1568 65.088 52.8777 63.4083 53.1073 61.5333C54.0061 54.1922 54.7554 46.8155 54.7631 46.7418C54.8356 46.0262 54.314 45.3869 53.5978 45.3144C52.8822 45.2406 52.2429 45.7635 52.1704 46.4797C52.1667 46.5181 51.9576 48.5749 51.6312 51.5702C43.1662 51.0733 36.8543 51.3797 34.3518 51.5536C33.9914 48.717 33.7475 46.8365 33.7475 46.8365C33.6552 46.1222 32.995 45.614 32.2883 45.7119C31.5746 45.8048 31.0715 46.4581 31.1637 47.1711C31.1637 47.1711 32.0656 54.1254 32.9727 61.5333C33.2023 63.4083 32.9233 65.088 32.3333 66.5625C31.71 61.6587 31.2661 56.9053 31.0282 52.4309C30.99 51.7128 30.3819 51.1645 29.6581 51.1995C28.9399 51.2376 28.3884 51.8508 28.4266 52.5696C28.5312 54.5336 28.6832 56.5602 28.8619 58.6172C28.818 58.6573 28.7641 58.6805 28.7249 58.7275C28.5405 58.9494 24.382 64.0992 24.5576 73.2381C24.5293 73.2443 24.4996 73.2543 24.4715 73.2602C24.1197 73.3327 24.0275 73.2493 23.9874 73.2137C22.9124 72.2392 23.4664 67.0189 23.7641 64.2144C23.9041 62.8926 24.037 61.644 24.0707 60.6638C24.1672 57.857 28.5763 48.5304 31.8859 42.201C34.1935 46.0371 38.3235 48.6087 43.0401 48.6087C47.7566 48.6087 51.8866 46.0371 54.1942 42.201C57.5038 48.5304 61.9129 57.857 62.0094 60.6638C62.0431 61.644 62.176 62.8926 62.316 64.2144C62.6136 67.0189 63.1676 72.2392 62.0926 73.2137ZM65.3173 70.2506C65.3455 68.4737 65.1637 66.3607 64.9067 63.9396C64.8808 63.6955 64.8559 63.4576 64.8312 63.2204C66.8946 62.6847 68.7716 61.2719 69.9265 60.2463C70.5925 61.1942 71.2705 62.1378 71.9742 63.0497C72.8163 64.1412 73.677 65.2196 74.5465 66.2903C73.829 67.9934 72.1918 72.2971 72.1073 76.1431C68.6814 74.0211 66.1024 71.1693 65.3173 70.2506ZM80.5741 78.5352C78.5743 78.7424 76.6025 78.3035 74.769 77.532C74.3989 74.6827 75.5888 70.8515 76.4463 68.5715C78.6781 71.2213 80.9799 73.7972 83.3443 76.2691C83.2534 76.6727 83.1232 77.0321 82.9365 77.3228C82.4881 78.0206 81.7159 78.4169 80.5741 78.5352Z" fill="#F3F09B"/>
</svg>
